solid ascii
  facet normal 0.000000e+000 -1.000000e+000 0.000000e+000
    outer loop
      vertex   -9.977131e+001 8.929210e+001 2.000000e+000
      vertex   -8.518501e+001 8.929210e+001 2.000000e+000
      vertex   -9.977131e+001 8.929210e+001 5.500000e+000
    endloop
  endfacet
  facet normal 0.000000e+000 -2.333280e-001 0.000000e+000
    outer loop
      vertex   -9.977131e+001 8.929210e+001 5.500000e+000
      vertex   -8.518501e+001 8.929210e+001 2.000000e+000
      vertex   -8.518501e+001 8.929210e+001 5.500000e+000
    endloop
  endfacet
  facet normal 7.071062e-001 -7.071074e-001 0.000000e+000
    outer loop
      vertex   -8.518501e+001 8.929210e+001 2.000000e+000
      vertex   -8.060000e+001 9.387710e+001 2.000000e+000
      vertex   -8.518501e+001 8.929210e+001 5.500000e+000
    endloop
  endfacet
  facet normal 3.358730e-001 -3.358730e-001 7.321451e-007
    outer loop
      vertex   -8.518501e+001 8.929210e+001 5.500000e+000
      vertex   -8.060000e+001 9.387710e+001 2.000000e+000
      vertex   -7.547521e+001 9.900189e+001 5.500000e+000
    endloop
  endfacet
  facet normal 6.367459e-001 -6.367450e-001 0.000000e+000
    outer loop
      vertex   -7.547521e+001 9.900189e+001 5.500000e+000
      vertex   -8.060000e+001 9.387710e+001 2.000000e+000
      vertex   -7.547521e+001 9.900189e+001 0.000000e+000
    endloop
  endfacet
  facet normal 1.880995e-001 -1.880992e-001 0.000000e+000
    outer loop
      vertex   -7.547521e+001 9.900189e+001 0.000000e+000
      vertex   -8.060000e+001 9.387710e+001 2.000000e+000
      vertex   -8.060000e+001 9.387710e+001 0.000000e+000
    endloop
  endfacet
  facet normal 1.000000e+000 0.000000e+000 0.000000e+000
    outer loop
      vertex   -7.547521e+001 9.900189e+001 0.000000e+000
      vertex   -7.547521e+001 1.085818e+002 1.800066e-015
      vertex   -7.547521e+001 9.900189e+001 5.500000e+000
    endloop
  endfacet
  facet normal 4.978971e-001 -0.000000e+000 0.000000e+000
    outer loop
      vertex   -7.547521e+001 9.900189e+001 5.500000e+000
      vertex   -7.547521e+001 1.085818e+002 1.800066e-015
      vertex   -7.547521e+001 1.085818e+002 5.500000e+000
    endloop
  endfacet
  facet normal -7.071062e-001 -7.071074e-001 0.000000e+000
    outer loop
      vertex   -1.044784e+002 9.399920e+001 2.000000e+000
      vertex   -9.977131e+001 8.929210e+001 2.000000e+000
      vertex   -1.044784e+002 9.399920e+001 5.500000e+000
    endloop
  endfacet
  facet normal -3.290667e-001 -3.290673e-001 -5.551115e-017
    outer loop
      vertex   -1.044784e+002 9.399920e+001 5.500000e+000
      vertex   -9.977131e+001 8.929210e+001 2.000000e+000
      vertex   -9.977131e+001 8.929210e+001 5.500000e+000
    endloop
  endfacet
  facet normal -1.000000e+000 0.000000e+000 0.000000e+000
    outer loop
      vertex   -1.044784e+002 1.135850e+002 2.000000e+000
      vertex   -1.044784e+002 9.399920e+001 2.000000e+000
      vertex   -1.044784e+002 1.135850e+002 5.500000e+000
    endloop
  endfacet
  facet normal -1.759142e-001 -0.000000e+000 0.000000e+000
    outer loop
      vertex   -1.044784e+002 1.135850e+002 5.500000e+000
      vertex   -1.044784e+002 9.399920e+001 2.000000e+000
      vertex   -1.044784e+002 9.399920e+001 5.500000e+000
    endloop
  endfacet
  facet normal -7.071068e-001 7.071068e-001 0.000000e+000
    outer loop
      vertex   -9.977131e+001 1.182921e+002 2.000000e+000
      vertex   -1.044784e+002 1.135850e+002 2.000000e+000
      vertex   -9.977131e+001 1.182921e+002 5.500000e+000
    endloop
  endfacet
  facet normal -3.290668e-001 3.290668e-001 0.000000e+000
    outer loop
      vertex   -9.977131e+001 1.182921e+002 5.500000e+000
      vertex   -1.044784e+002 1.135850e+002 2.000000e+000
      vertex   -1.044784e+002 1.135850e+002 5.500000e+000
    endloop
  endfacet
  facet normal 0.000000e+000 1.000000e+000 -0.000000e+000
    outer loop
      vertex   -8.518552e+001 1.182921e+002 2.000000e+000
      vertex   -9.977131e+001 1.182921e+002 2.000000e+000
      vertex   -8.518552e+001 1.182921e+002 5.500000e+000
    endloop
  endfacet
  facet normal 0.000000e+000 2.333359e-001 0.000000e+000
    outer loop
      vertex   -8.518552e+001 1.182921e+002 5.500000e+000
      vertex   -9.977131e+001 1.182921e+002 2.000000e+000
      vertex   -9.977131e+001 1.182921e+002 5.500000e+000
    endloop
  endfacet
  facet normal 7.071068e-001 7.071068e-001 -0.000000e+000
    outer loop
      vertex   -8.518552e+001 1.182921e+002 2.000000e+000
      vertex   -8.518552e+001 1.182921e+002 5.500000e+000
      vertex   -8.060000e+001 1.137066e+002 2.000000e+000
    endloop
  endfacet
  facet normal 5.730270e-001 5.730265e-001 5.898651e-007
    outer loop
      vertex   -8.060000e+001 1.137066e+002 2.000000e+000
      vertex   -8.518552e+001 1.182921e+002 5.500000e+000
      vertex   -7.547521e+001 1.085818e+002 5.500000e+000
    endloop
  endfacet
  facet normal 4.658017e-001 4.658010e-001 -5.551115e-017
    outer loop
      vertex   -8.060000e+001 1.137066e+002 2.000000e+000
      vertex   -7.547521e+001 1.085818e+002 5.500000e+000
      vertex   -7.547521e+001 1.085818e+002 1.800066e-015
    endloop
  endfacet
  facet normal 1.880995e-001 1.880992e-001 0.000000e+000
    outer loop
      vertex   -7.547521e+001 1.085818e+002 1.800066e-015
      vertex   -8.060000e+001 1.137066e+002 8.641642e-016
      vertex   -8.060000e+001 1.137066e+002 2.000000e+000
    endloop
  endfacet
  facet normal 0.000000e+000 -0.000000e+000 9.854479e-001
    outer loop
      vertex   -7.547521e+001 9.900189e+001 5.500000e+000
      vertex   -7.547521e+001 1.085818e+002 5.500000e+000
      vertex   -1.044784e+002 9.399920e+001 5.500000e+000
    endloop
  endfacet
  facet normal 0.000000e+000 0.000000e+000 4.202643e-001
    outer loop
      vertex   -1.044784e+002 9.399920e+001 5.500000e+000
      vertex   -7.547521e+001 1.085818e+002 5.500000e+000
      vertex   -8.518552e+001 1.182921e+002 5.500000e+000
    endloop
  endfacet
  facet normal 0.000000e+000 0.000000e+000 6.219112e-001
    outer loop
      vertex   -1.044784e+002 9.399920e+001 5.500000e+000
      vertex   -8.518552e+001 1.182921e+002 5.500000e+000
      vertex   -1.044784e+002 1.135850e+002 5.500000e+000
    endloop
  endfacet
  facet normal 0.000000e+000 0.000000e+000 5.193516e-001
    outer loop
      vertex   -1.044784e+002 1.135850e+002 5.500000e+000
      vertex   -8.518552e+001 1.182921e+002 5.500000e+000
      vertex   -9.977131e+001 1.182921e+002 5.500000e+000
    endloop
  endfacet
  facet normal 0.000000e+000 -0.000000e+000 7.071062e-001
    outer loop
      vertex   -9.977131e+001 8.929210e+001 5.500000e+000
      vertex   -8.518501e+001 8.929210e+001 5.500000e+000
      vertex   -1.044784e+002 9.399920e+001 5.500000e+000
    endloop
  endfacet
  facet normal -0.000000e+000 0.000000e+000 3.987070e-001
    outer loop
      vertex   -1.044784e+002 9.399920e+001 5.500000e+000
      vertex   -8.518501e+001 8.929210e+001 5.500000e+000
      vertex   -7.547521e+001 9.900189e+001 5.500000e+000
    endloop
  endfacet
  facet normal 0.000000e+000 0.000000e+000 7.071074e-001
    outer loop
      vertex   -8.060000e+001 9.387710e+001 2.000000e+000
      vertex   -8.518501e+001 8.929210e+001 2.000000e+000
      vertex   -8.060000e+001 9.380000e+001 2.000000e+000
    endloop
  endfacet
  facet normal 0.000000e+000 0.000000e+000 9.999641e-001
    outer loop
      vertex   -8.060000e+001 9.380000e+001 2.000000e+000
      vertex   -8.518501e+001 8.929210e+001 2.000000e+000
      vertex   -7.560000e+001 8.880000e+001 2.000000e+000
    endloop
  endfacet
  facet normal 0.000000e+000 0.000000e+000 5.127265e-002
    outer loop
      vertex   -7.560000e+001 8.880000e+001 2.000000e+000
      vertex   -8.518501e+001 8.929210e+001 2.000000e+000
      vertex   -1.056000e+002 8.880000e+001 2.000000e+000
    endloop
  endfacet
  facet normal 0.000000e+000 0.000000e+000 6.009059e-002
    outer loop
      vertex   -1.056000e+002 8.880000e+001 2.000000e+000
      vertex   -8.518501e+001 8.929210e+001 2.000000e+000
      vertex   -9.977131e+001 8.929210e+001 2.000000e+000
    endloop
  endfacet
  facet normal 0.000000e+000 0.000000e+000 9.563085e-001
    outer loop
      vertex   -1.056000e+002 8.880000e+001 2.000000e+000
      vertex   -9.977131e+001 8.929210e+001 2.000000e+000
      vertex   -1.044784e+002 9.399920e+001 2.000000e+000
    endloop
  endfacet
  facet normal 0.000000e+000 -0.000000e+000 2.108714e-001
    outer loop
      vertex   -1.044784e+002 9.399920e+001 2.000000e+000
      vertex   -1.044784e+002 1.135850e+002 2.000000e+000
      vertex   -1.056000e+002 8.880000e+001 2.000000e+000
    endloop
  endfacet
  facet normal 0.000000e+000 0.000000e+000 4.520621e-002
    outer loop
      vertex   -1.056000e+002 8.880000e+001 2.000000e+000
      vertex   -1.044784e+002 1.135850e+002 2.000000e+000
      vertex   -1.056000e+002 1.188000e+002 2.000000e+000
    endloop
  endfacet
  facet normal 0.000000e+000 0.000000e+000 9.557021e-001
    outer loop
      vertex   -1.056000e+002 1.188000e+002 2.000000e+000
      vertex   -1.044784e+002 1.135850e+002 2.000000e+000
      vertex   -9.977131e+001 1.182921e+002 2.000000e+000
    endloop
  endfacet
  facet normal 0.000000e+000 0.000000e+000 6.200481e-002
    outer loop
      vertex   -1.056000e+002 1.188000e+002 2.000000e+000
      vertex   -9.977131e+001 1.182921e+002 2.000000e+000
      vertex   -8.518552e+001 1.182921e+002 2.000000e+000
    endloop
  endfacet
  facet normal 0.000000e+000 -0.000000e+000 7.071068e-001
    outer loop
      vertex   -8.060000e+001 1.137066e+002 2.000000e+000
      vertex   -8.060000e+001 1.138000e+002 2.000000e+000
      vertex   -8.518552e+001 1.182921e+002 2.000000e+000
    endloop
  endfacet
  facet normal -0.000000e+000 0.000000e+000 7.366094e-001
    outer loop
      vertex   -8.518552e+001 1.182921e+002 2.000000e+000
      vertex   -8.060000e+001 1.138000e+002 2.000000e+000
      vertex   -7.560000e+001 1.188000e+002 2.000000e+000
    endloop
  endfacet
  facet normal 0.000000e+000 -0.000000e+000 7.773303e-002
    outer loop
      vertex   -8.518552e+001 1.182921e+002 2.000000e+000
      vertex   -7.560000e+001 1.188000e+002 2.000000e+000
      vertex   -1.056000e+002 1.188000e+002 2.000000e+000
    endloop
  endfacet
  facet normal 1.000000e+000 -0.000000e+000 0.000000e+000
    outer loop
      vertex   -8.060000e+001 1.137066e+002 8.641642e-016
      vertex   -8.060000e+001 1.138000e+002 4.163336e-016
      vertex   -8.060000e+001 1.137066e+002 2.000000e+000
    endloop
  endfacet
  facet normal 9.989107e-001 -0.000000e+000 0.000000e+000
    outer loop
      vertex   -8.060000e+001 1.137066e+002 2.000000e+000
      vertex   -8.060000e+001 1.138000e+002 4.163336e-016
      vertex   -8.060000e+001 1.138000e+002 2.000000e+000
    endloop
  endfacet
  facet normal 7.071068e-001 7.071068e-001 0.000000e+000
    outer loop
      vertex   -8.060000e+001 9.380000e+001 2.000000e+000
      vertex   -7.560000e+001 8.880000e+001 2.000000e+000
      vertex   -8.060000e+001 9.380000e+001 4.163336e-016
    endloop
  endfacet
  facet normal 1.924501e-001 1.924501e-001 0.000000e+000
    outer loop
      vertex   -8.060000e+001 9.380000e+001 4.163336e-016
      vertex   -7.560000e+001 8.880000e+001 2.000000e+000
      vertex   -7.560000e+001 8.880000e+001 5.551115e-016
    endloop
  endfacet
  facet normal 1.000000e+000 0.000000e+000 -0.000000e+000
    outer loop
      vertex   -8.060000e+001 9.387710e+001 0.000000e+000
      vertex   -8.060000e+001 9.387710e+001 2.000000e+000
      vertex   -8.060000e+001 9.380000e+001 4.163336e-016
    endloop
  endfacet
  facet normal 3.851891e-002 0.000000e+000 0.000000e+000
    outer loop
      vertex   -8.060000e+001 9.380000e+001 4.163336e-016
      vertex   -8.060000e+001 9.387710e+001 2.000000e+000
      vertex   -8.060000e+001 9.380000e+001 2.000000e+000
    endloop
  endfacet
  facet normal 7.071068e-001 -7.071068e-001 0.000000e+000
    outer loop
      vertex   -7.560000e+001 1.188000e+002 2.000000e+000
      vertex   -8.060000e+001 1.138000e+002 2.000000e+000
      vertex   -7.560000e+001 1.188000e+002 5.551115e-016
    endloop
  endfacet
  facet normal 1.924501e-001 -1.924501e-001 0.000000e+000
    outer loop
      vertex   -7.560000e+001 1.188000e+002 5.551115e-016
      vertex   -8.060000e+001 1.138000e+002 2.000000e+000
      vertex   -8.060000e+001 1.138000e+002 4.163336e-016
    endloop
  endfacet
  facet normal 1.053636e-015 -5.295396e-015 -9.805807e-001
    outer loop
      vertex   -8.060000e+001 9.380000e+001 4.163336e-016
      vertex   -1.056000e+002 8.880000e+001 5.551115e-016
      vertex   -8.060000e+001 9.387710e+001 0.000000e+000
    endloop
  endfacet
  facet normal -3.043356e-017 4.270798e-017 -9.799952e-001
    outer loop
      vertex   -8.060000e+001 9.387710e+001 0.000000e+000
      vertex   -1.056000e+002 8.880000e+001 5.551115e-016
      vertex   -8.060000e+001 1.137066e+002 8.641642e-016
    endloop
  endfacet
  facet normal -3.081558e-017 3.081554e-017 -7.071062e-001
    outer loop
      vertex   -8.060000e+001 9.387710e+001 0.000000e+000
      vertex   -8.060000e+001 1.137066e+002 8.641642e-016
      vertex   -7.547521e+001 9.900189e+001 0.000000e+000
    endloop
  endfacet
  facet normal 1.219392e-016 6.183806e-017 -3.291000e-001
    outer loop
      vertex   -7.547521e+001 9.900189e+001 0.000000e+000
      vertex   -8.060000e+001 1.137066e+002 8.641642e-016
      vertex   -7.547521e+001 1.085818e+002 1.800066e-015
    endloop
  endfacet
  facet normal 0.000000e+000 -2.309404e-017 -8.320503e-001
    outer loop
      vertex   -8.060000e+001 9.380000e+001 4.163336e-016
      vertex   -7.560000e+001 8.880000e+001 5.551115e-016
      vertex   -1.056000e+002 8.880000e+001 5.551115e-016
    endloop
  endfacet
  facet normal 8.757679e-018 0.000000e+000 -7.084293e-001
    outer loop
      vertex   -1.056000e+002 8.880000e+001 5.551115e-016
      vertex   -1.056000e+002 1.188000e+002 5.551115e-016
      vertex   -8.060000e+001 1.137066e+002 8.641642e-016
    endloop
  endfacet
  facet normal -9.447904e-016 -4.696755e-015 -9.798701e-001
    outer loop
      vertex   -8.060000e+001 1.137066e+002 8.641642e-016
      vertex   -1.056000e+002 1.188000e+002 5.551115e-016
      vertex   -8.060000e+001 1.138000e+002 4.163336e-016
    endloop
  endfacet
  facet normal 0.000000e+000 2.309404e-017 -8.320503e-001
    outer loop
      vertex   -8.060000e+001 1.138000e+002 4.163336e-016
      vertex   -1.056000e+002 1.188000e+002 5.551115e-016
      vertex   -7.560000e+001 1.188000e+002 5.551115e-016
    endloop
  endfacet
  facet normal 0.000000e+000 -1.000000e+000 0.000000e+000
    outer loop
      vertex   -1.056000e+002 8.880000e+001 2.000000e+000
      vertex   -1.056000e+002 8.880000e+001 5.551115e-016
      vertex   -7.560000e+001 8.880000e+001 2.000000e+000
    endloop
  endfacet
  facet normal 0.000000e+000 -9.977852e-001 -0.000000e+000
    outer loop
      vertex   -7.560000e+001 8.880000e+001 2.000000e+000
      vertex   -1.056000e+002 8.880000e+001 5.551115e-016
      vertex   -7.560000e+001 8.880000e+001 5.551115e-016
    endloop
  endfacet
  facet normal -1.000000e+000 -0.000000e+000 -0.000000e+000
    outer loop
      vertex   -1.056000e+002 1.188000e+002 2.000000e+000
      vertex   -1.056000e+002 1.188000e+002 5.551115e-016
      vertex   -1.056000e+002 8.880000e+001 2.000000e+000
    endloop
  endfacet
  facet normal -9.977852e-001 0.000000e+000 0.000000e+000
    outer loop
      vertex   -1.056000e+002 8.880000e+001 2.000000e+000
      vertex   -1.056000e+002 1.188000e+002 5.551115e-016
      vertex   -1.056000e+002 8.880000e+001 5.551115e-016
    endloop
  endfacet
  facet normal 0.000000e+000 1.000000e+000 0.000000e+000
    outer loop
      vertex   -7.560000e+001 1.188000e+002 2.000000e+000
      vertex   -7.560000e+001 1.188000e+002 5.551115e-016
      vertex   -1.056000e+002 1.188000e+002 2.000000e+000
    endloop
  endfacet
  facet normal 0.000000e+000 9.977852e-001 0.000000e+000
    outer loop
      vertex   -1.056000e+002 1.188000e+002 2.000000e+000
      vertex   -7.560000e+001 1.188000e+002 5.551115e-016
      vertex   -1.056000e+002 1.188000e+002 5.551115e-016
    endloop
  endfacet
endsolid
