solid ascii
  facet normal 1.000000e+000 0.000000e+000 0.000000e+000
    outer loop
      vertex   -5.994408e+001 5.867720e+001 0.000000e+000
      vertex   -5.994408e+001 6.854704e+001 1.826730e-015
      vertex   -5.994408e+001 5.867720e+001 2.400000e+000
    endloop
  endfacet
  facet normal 2.362799e-001 -0.000000e+000 0.000000e+000
    outer loop
      vertex   -5.994408e+001 5.867720e+001 2.400000e+000
      vertex   -5.994408e+001 6.854704e+001 1.826730e-015
      vertex   -5.994408e+001 6.854704e+001 2.400000e+000
    endloop
  endfacet
  facet normal 7.071068e-001 -7.071068e-001 0.000000e+000
    outer loop
      vertex   -6.985890e+001 4.876238e+001 0.000000e+000
      vertex   -5.994408e+001 5.867720e+001 0.000000e+000
      vertex   -6.985890e+001 4.876238e+001 2.400000e+000
    endloop
  endfacet
  facet normal 1.192960e-001 -1.192960e-001 0.000000e+000
    outer loop
      vertex   -6.985890e+001 4.876238e+001 2.400000e+000
      vertex   -5.994408e+001 5.867720e+001 0.000000e+000
      vertex   -5.994408e+001 5.867720e+001 2.400000e+000
    endloop
  endfacet
  facet normal 0.000000e+000 -1.000000e+000 0.000000e+000
    outer loop
      vertex   -8.473516e+001 4.876238e+001 0.000000e+000
      vertex   -6.985890e+001 4.876238e+001 0.000000e+000
      vertex   -8.473516e+001 4.876238e+001 2.400000e+000
    endloop
  endfacet
  facet normal 0.000000e+000 -1.592715e-001 0.000000e+000
    outer loop
      vertex   -8.473516e+001 4.876238e+001 2.400000e+000
      vertex   -6.985890e+001 4.876238e+001 0.000000e+000
      vertex   -6.985890e+001 4.876238e+001 2.400000e+000
    endloop
  endfacet
  facet normal -7.071068e-001 -7.071068e-001 0.000000e+000
    outer loop
      vertex   -8.964729e+001 5.367451e+001 0.000000e+000
      vertex   -8.473516e+001 4.876238e+001 0.000000e+000
      vertex   -8.964729e+001 5.367451e+001 2.400000e+000
    endloop
  endfacet
  facet normal -2.309014e-001 -2.309014e-001 0.000000e+000
    outer loop
      vertex   -8.964729e+001 5.367451e+001 2.400000e+000
      vertex   -8.473516e+001 4.876238e+001 0.000000e+000
      vertex   -8.473516e+001 4.876238e+001 2.400000e+000
    endloop
  endfacet
  facet normal -1.000000e+000 0.000000e+000 0.000000e+000
    outer loop
      vertex   -8.964729e+001 7.355025e+001 0.000000e+000
      vertex   -8.964729e+001 5.367451e+001 0.000000e+000
      vertex   -8.964729e+001 7.355025e+001 2.400000e+000
    endloop
  endfacet
  facet normal -1.198794e-001 -0.000000e+000 0.000000e+000
    outer loop
      vertex   -8.964729e+001 7.355025e+001 2.400000e+000
      vertex   -8.964729e+001 5.367451e+001 0.000000e+000
      vertex   -8.964729e+001 5.367451e+001 2.400000e+000
    endloop
  endfacet
  facet normal -7.071068e-001 7.071068e-001 0.000000e+000
    outer loop
      vertex   -8.473516e+001 7.846239e+001 0.000000e+000
      vertex   -8.964729e+001 7.355025e+001 0.000000e+000
      vertex   -8.473516e+001 7.846239e+001 2.400000e+000
    endloop
  endfacet
  facet normal -2.309014e-001 2.309014e-001 0.000000e+000
    outer loop
      vertex   -8.473516e+001 7.846239e+001 2.400000e+000
      vertex   -8.964729e+001 7.355025e+001 0.000000e+000
      vertex   -8.964729e+001 7.355025e+001 2.400000e+000
    endloop
  endfacet
  facet normal 0.000000e+000 1.000000e+000 -0.000000e+000
    outer loop
      vertex   -6.985942e+001 7.846239e+001 8.058370e-018
      vertex   -8.473516e+001 7.846239e+001 0.000000e+000
      vertex   -6.985942e+001 7.846239e+001 2.400000e+000
    endloop
  endfacet
  facet normal 0.000000e+000 1.592769e-001 0.000000e+000
    outer loop
      vertex   -6.985942e+001 7.846239e+001 2.400000e+000
      vertex   -8.473516e+001 7.846239e+001 0.000000e+000
      vertex   -8.473516e+001 7.846239e+001 2.400000e+000
    endloop
  endfacet
  facet normal 7.071069e-001 7.071066e-001 -0.000000e+000
    outer loop
      vertex   -5.994408e+001 6.854704e+001 1.826730e-015
      vertex   -6.985942e+001 7.846239e+001 8.058370e-018
      vertex   -5.994408e+001 6.854704e+001 2.400000e+000
    endloop
  endfacet
  facet normal 1.192900e-001 1.192899e-001 5.551115e-017
    outer loop
      vertex   -5.994408e+001 6.854704e+001 2.400000e+000
      vertex   -6.985942e+001 7.846239e+001 8.058370e-018
      vertex   -6.985942e+001 7.846239e+001 2.400000e+000
    endloop
  endfacet
  facet normal 0.000000e+000 -0.000000e+000 9.861117e-001
    outer loop
      vertex   -5.994408e+001 5.867720e+001 2.400000e+000
      vertex   -5.994408e+001 6.854704e+001 2.400000e+000
      vertex   -8.964729e+001 5.367451e+001 2.400000e+000
    endloop
  endfacet
  facet normal 0.000000e+000 0.000000e+000 4.194950e-001
    outer loop
      vertex   -8.964729e+001 5.367451e+001 2.400000e+000
      vertex   -5.994408e+001 6.854704e+001 2.400000e+000
      vertex   -6.985942e+001 7.846239e+001 2.400000e+000
    endloop
  endfacet
  facet normal 0.000000e+000 0.000000e+000 6.238791e-001
    outer loop
      vertex   -8.964729e+001 5.367451e+001 2.400000e+000
      vertex   -6.985942e+001 7.846239e+001 2.400000e+000
      vertex   -8.964729e+001 7.355025e+001 2.400000e+000
    endloop
  endfacet
  facet normal 0.000000e+000 0.000000e+000 5.159164e-001
    outer loop
      vertex   -8.964729e+001 7.355025e+001 2.400000e+000
      vertex   -6.985942e+001 7.846239e+001 2.400000e+000
      vertex   -8.473516e+001 7.846239e+001 2.400000e+000
    endloop
  endfacet
  facet normal 0.000000e+000 -0.000000e+000 7.071068e-001
    outer loop
      vertex   -8.473516e+001 4.876238e+001 2.400000e+000
      vertex   -6.985890e+001 4.876238e+001 2.400000e+000
      vertex   -8.964729e+001 5.367451e+001 2.400000e+000
    endloop
  endfacet
  facet normal -0.000000e+000 0.000000e+000 3.987666e-001
    outer loop
      vertex   -8.964729e+001 5.367451e+001 2.400000e+000
      vertex   -6.985890e+001 4.876238e+001 2.400000e+000
      vertex   -5.994408e+001 5.867720e+001 2.400000e+000
    endloop
  endfacet
  facet normal 9.695252e-017 -7.708761e-017 -9.488614e-001
    outer loop
      vertex   -5.994408e+001 6.854704e+001 1.826730e-015
      vertex   -8.964729e+001 5.367451e+001 0.000000e+000
      vertex   -6.985942e+001 7.846239e+001 8.058370e-018
    endloop
  endfacet
  facet normal 2.476781e-019 0.000000e+000 -6.081903e-001
    outer loop
      vertex   -6.985942e+001 7.846239e+001 8.058370e-018
      vertex   -8.964729e+001 5.367451e+001 0.000000e+000
      vertex   -8.964729e+001 7.355025e+001 0.000000e+000
    endloop
  endfacet
  facet normal 1.305132e-019 -1.305132e-019 -2.409272e-001
    outer loop
      vertex   -6.985942e+001 7.846239e+001 8.058370e-018
      vertex   -8.964729e+001 7.355025e+001 0.000000e+000
      vertex   -8.473516e+001 7.846239e+001 0.000000e+000
    endloop
  endfacet
  facet normal -2.787321e-017 1.654958e-016 -8.941751e-001
    outer loop
      vertex   -5.994408e+001 6.854704e+001 1.826730e-015
      vertex   -5.994408e+001 5.867720e+001 0.000000e+000
      vertex   -8.964729e+001 5.367451e+001 0.000000e+000
    endloop
  endfacet
  facet normal 0.000000e+000 0.000000e+000 -3.987666e-001
    outer loop
      vertex   -8.964729e+001 5.367451e+001 0.000000e+000
      vertex   -5.994408e+001 5.867720e+001 0.000000e+000
      vertex   -6.985890e+001 4.876238e+001 0.000000e+000
    endloop
  endfacet
  facet normal 0.000000e+000 0.000000e+000 -5.159217e-001
    outer loop
      vertex   -8.964729e+001 5.367451e+001 0.000000e+000
      vertex   -6.985890e+001 4.876238e+001 0.000000e+000
      vertex   -8.473516e+001 4.876238e+001 0.000000e+000
    endloop
  endfacet
endsolid
