solid ascii
  facet normal 0.000000e+000 0.000000e+000 -9.921759e-001
    outer loop
      vertex   -1.230770e+002 2.737332e+001 6.506014e+000
      vertex   -1.230770e+002 3.537722e+001 6.506014e+000
      vertex   -1.047230e+002 2.506380e+001 6.506014e+000
    endloop
  endfacet
  facet normal 0.000000e+000 0.000000e+000 -1.623897e-001
    outer loop
      vertex   -1.047230e+002 2.506380e+001 6.506014e+000
      vertex   -1.230770e+002 3.537722e+001 6.506014e+000
      vertex   -1.204914e+002 3.768674e+001 6.506014e+000
    endloop
  endfacet
  facet normal 0.000000e+000 0.000000e+000 -7.806700e-001
    outer loop
      vertex   -1.047230e+002 2.506380e+001 6.506014e+000
      vertex   -1.204914e+002 3.768674e+001 6.506014e+000
      vertex   -1.047230e+002 3.768674e+001 6.506014e+000
    endloop
  endfacet
  facet normal 0.000000e+000 0.000000e+000 -1.248476e-001
    outer loop
      vertex   -1.047230e+002 2.506380e+001 6.506014e+000
      vertex   -1.204914e+002 2.506380e+001 6.506014e+000
      vertex   -1.230770e+002 2.737332e+001 6.506014e+000
    endloop
  endfacet
  facet normal 0.000000e+000 -5.770450e-001 5.440713e-001
    outer loop
      vertex   -1.204914e+002 2.506380e+001 6.506014e+000
      vertex   -1.047230e+002 2.506380e+001 6.506014e+000
      vertex   -1.187033e+002 2.666099e+001 8.200000e+000
    endloop
  endfacet
  facet normal 0.000000e+000 -1.195234e-001 1.126935e-001
    outer loop
      vertex   -1.187033e+002 2.666099e+001 8.200000e+000
      vertex   -1.047230e+002 2.506380e+001 6.506014e+000
      vertex   -1.065111e+002 2.666099e+001 8.200000e+000
    endloop
  endfacet
  facet normal 5.770450e-001 -0.000000e+000 6.091023e-001
    outer loop
      vertex   -1.047230e+002 2.506380e+001 6.506014e+000
      vertex   -1.047230e+002 3.768674e+001 6.506014e+000
      vertex   -1.065111e+002 2.666099e+001 8.200000e+000
    endloop
  endfacet
  facet normal 1.499430e-001 -0.000000e+000 1.582729e-001
    outer loop
      vertex   -1.065111e+002 2.666099e+001 8.200000e+000
      vertex   -1.047230e+002 3.768674e+001 6.506014e+000
      vertex   -1.065111e+002 3.608956e+001 8.200000e+000
    endloop
  endfacet
  facet normal 0.000000e+000 5.770450e-001 5.440713e-001
    outer loop
      vertex   -1.047230e+002 3.768674e+001 6.506014e+000
      vertex   -1.204914e+002 3.768674e+001 6.506014e+000
      vertex   -1.065111e+002 3.608956e+001 8.200000e+000
    endloop
  endfacet
  facet normal 0.000000e+000 1.195234e-001 1.126935e-001
    outer loop
      vertex   -1.065111e+002 3.608956e+001 8.200000e+000
      vertex   -1.204914e+002 3.768674e+001 6.506014e+000
      vertex   -1.187033e+002 3.608956e+001 8.200000e+000
    endloop
  endfacet
  facet normal 0.000000e+000 -5.773503e-001 5.773503e-001
    outer loop
      vertex   -1.099000e+002 2.810384e+001 1.020000e+001
      vertex   -1.189000e+002 2.810384e+001 1.020000e+001
      vertex   -1.094000e+002 2.760384e+001 9.700000e+000
    endloop
  endfacet
  facet normal 0.000000e+000 -5.248639e-002 5.248639e-002
    outer loop
      vertex   -1.094000e+002 2.760384e+001 9.700000e+000
      vertex   -1.189000e+002 2.810384e+001 1.020000e+001
      vertex   -1.194000e+002 2.760384e+001 9.700000e+000
    endloop
  endfacet
  facet normal 0.000000e+000 -1.000000e+000 0.000000e+000
    outer loop
      vertex   -1.194000e+002 2.760384e+001 9.700000e+000
      vertex   -1.194000e+002 2.760384e+001 8.200000e+000
      vertex   -1.094000e+002 2.760384e+001 9.700000e+000
    endloop
  endfacet
  facet normal 0.000000e+000 -9.889364e-001 -0.000000e+000
    outer loop
      vertex   -1.094000e+002 2.760384e+001 9.700000e+000
      vertex   -1.194000e+002 2.760384e+001 8.200000e+000
      vertex   -1.094000e+002 2.760384e+001 8.200000e+000
    endloop
  endfacet
  facet normal -5.773503e-001 0.000000e+000 5.773503e-001
    outer loop
      vertex   -1.189000e+002 2.810384e+001 1.020000e+001
      vertex   -1.189000e+002 3.464670e+001 1.020000e+001
      vertex   -1.194000e+002 2.760384e+001 9.700000e+000
    endloop
  endfacet
  facet normal -7.063879e-002 0.000000e+000 7.063879e-002
    outer loop
      vertex   -1.194000e+002 2.760384e+001 9.700000e+000
      vertex   -1.189000e+002 3.464670e+001 1.020000e+001
      vertex   -1.194000e+002 3.514670e+001 9.700000e+000
    endloop
  endfacet
  facet normal 0.000000e+000 0.000000e+000 1.000000e+000
    outer loop
      vertex   -1.189000e+002 2.810384e+001 1.020000e+001
      vertex   -1.099000e+002 2.810384e+001 1.020000e+001
      vertex   -1.189000e+002 3.464670e+001 1.020000e+001
    endloop
  endfacet
  facet normal -0.000000e+000 0.000000e+000 5.880190e-001
    outer loop
      vertex   -1.189000e+002 3.464670e+001 1.020000e+001
      vertex   -1.099000e+002 2.810384e+001 1.020000e+001
      vertex   -1.099000e+002 3.464670e+001 1.020000e+001
    endloop
  endfacet
  facet normal -0.000000e+000 5.773503e-001 5.773503e-001
    outer loop
      vertex   -1.189000e+002 3.464670e+001 1.020000e+001
      vertex   -1.099000e+002 3.464670e+001 1.020000e+001
      vertex   -1.194000e+002 3.514670e+001 9.700000e+000
    endloop
  endfacet
  facet normal -0.000000e+000 5.248639e-002 5.248639e-002
    outer loop
      vertex   -1.194000e+002 3.514670e+001 9.700000e+000
      vertex   -1.099000e+002 3.464670e+001 1.020000e+001
      vertex   -1.094000e+002 3.514670e+001 9.700000e+000
    endloop
  endfacet
  facet normal 0.000000e+000 1.000000e+000 0.000000e+000
    outer loop
      vertex   -1.094000e+002 3.514670e+001 9.700000e+000
      vertex   -1.094000e+002 3.514670e+001 8.200000e+000
      vertex   -1.194000e+002 3.514670e+001 9.700000e+000
    endloop
  endfacet
  facet normal 0.000000e+000 9.889364e-001 0.000000e+000
    outer loop
      vertex   -1.194000e+002 3.514670e+001 9.700000e+000
      vertex   -1.094000e+002 3.514670e+001 8.200000e+000
      vertex   -1.194000e+002 3.514670e+001 8.200000e+000
    endloop
  endfacet
  facet normal 5.773503e-001 -0.000000e+000 5.773503e-001
    outer loop
      vertex   -1.099000e+002 2.810384e+001 1.020000e+001
      vertex   -1.094000e+002 2.760384e+001 9.700000e+000
      vertex   -1.099000e+002 3.464670e+001 1.020000e+001
    endloop
  endfacet
  facet normal 6.152455e-001 0.000000e+000 6.152455e-001
    outer loop
      vertex   -1.099000e+002 3.464670e+001 1.020000e+001
      vertex   -1.094000e+002 2.760384e+001 9.700000e+000
      vertex   -1.094000e+002 3.514670e+001 9.700000e+000
    endloop
  endfacet
  facet normal -1.000000e+000 -0.000000e+000 -0.000000e+000
    outer loop
      vertex   -1.194000e+002 3.514670e+001 9.700000e+000
      vertex   -1.194000e+002 3.514670e+001 8.200000e+000
      vertex   -1.194000e+002 2.760384e+001 9.700000e+000
    endloop
  endfacet
  facet normal -9.807944e-001 0.000000e+000 0.000000e+000
    outer loop
      vertex   -1.194000e+002 2.760384e+001 9.700000e+000
      vertex   -1.194000e+002 3.514670e+001 8.200000e+000
      vertex   -1.194000e+002 2.760384e+001 8.200000e+000
    endloop
  endfacet
  facet normal 1.000000e+000 -0.000000e+000 0.000000e+000
    outer loop
      vertex   -1.094000e+002 2.760384e+001 9.700000e+000
      vertex   -1.094000e+002 2.760384e+001 8.200000e+000
      vertex   -1.094000e+002 3.514670e+001 9.700000e+000
    endloop
  endfacet
  facet normal 9.807944e-001 0.000000e+000 0.000000e+000
    outer loop
      vertex   -1.094000e+002 3.514670e+001 9.700000e+000
      vertex   -1.094000e+002 2.760384e+001 8.200000e+000
      vertex   -1.094000e+002 3.514670e+001 8.200000e+000
    endloop
  endfacet
  facet normal -3.844101e-001 4.303588e-001 8.115345e-001
    outer loop
      vertex   -1.230770e+002 3.537722e+001 6.506014e+000
      vertex   -1.212889e+002 3.378004e+001 8.200000e+000
      vertex   -1.204914e+002 3.768674e+001 6.506014e+000
    endloop
  endfacet
  facet normal -3.076263e-001 3.443960e-001 6.494326e-001
    outer loop
      vertex   -1.204914e+002 3.768674e+001 6.506014e+000
      vertex   -1.212889e+002 3.378004e+001 8.200000e+000
      vertex   -1.187033e+002 3.608956e+001 8.200000e+000
    endloop
  endfacet
  facet normal -5.770441e-001 0.000000e+000 6.091039e-001
    outer loop
      vertex   -1.230770e+002 2.737332e+001 6.506014e+000
      vertex   -1.212889e+002 2.897050e+001 8.200000e+000
      vertex   -1.230770e+002 3.537722e+001 6.506014e+000
    endloop
  endfacet
  facet normal -4.043353e-001 2.775558e-017 4.267997e-001
    outer loop
      vertex   -1.230770e+002 3.537722e+001 6.506014e+000
      vertex   -1.212889e+002 2.897050e+001 8.200000e+000
      vertex   -1.212889e+002 3.378004e+001 8.200000e+000
    endloop
  endfacet
  facet normal -3.844099e-001 -4.303590e-001 8.115345e-001
    outer loop
      vertex   -1.230770e+002 2.737332e+001 6.506014e+000
      vertex   -1.204914e+002 2.506380e+001 6.506014e+000
      vertex   -1.212889e+002 2.897050e+001 8.200000e+000
    endloop
  endfacet
  facet normal -2.604882e-001 -2.916239e-001 5.499192e-001
    outer loop
      vertex   -1.212889e+002 2.897050e+001 8.200000e+000
      vertex   -1.204914e+002 2.506380e+001 6.506014e+000
      vertex   -1.187033e+002 2.666099e+001 8.200000e+000
    endloop
  endfacet
  facet normal 0.000000e+000 0.000000e+000 1.008301e-001
    outer loop
      vertex   -1.094000e+002 3.514670e+001 8.200000e+000
      vertex   -1.187033e+002 3.608956e+001 8.200000e+000
      vertex   -1.194000e+002 3.514670e+001 8.200000e+000
    endloop
  endfacet
  facet normal 0.000000e+000 -0.000000e+000 3.032391e-001
    outer loop
      vertex   -1.194000e+002 3.514670e+001 8.200000e+000
      vertex   -1.187033e+002 3.608956e+001 8.200000e+000
      vertex   -1.212889e+002 3.378004e+001 8.200000e+000
    endloop
  endfacet
  facet normal 0.000000e+000 0.000000e+000 6.033171e-001
    outer loop
      vertex   -1.194000e+002 3.514670e+001 8.200000e+000
      vertex   -1.212889e+002 3.378004e+001 8.200000e+000
      vertex   -1.212889e+002 2.897050e+001 8.200000e+000
    endloop
  endfacet
  facet normal -0.000000e+000 0.000000e+000 1.008301e-001
    outer loop
      vertex   -1.187033e+002 3.608956e+001 8.200000e+000
      vertex   -1.094000e+002 3.514670e+001 8.200000e+000
      vertex   -1.065111e+002 3.608956e+001 8.200000e+000
    endloop
  endfacet
  facet normal 0.000000e+000 0.000000e+000 7.999355e-001
    outer loop
      vertex   -1.065111e+002 3.608956e+001 8.200000e+000
      vertex   -1.094000e+002 3.514670e+001 8.200000e+000
      vertex   -1.094000e+002 2.760384e+001 8.200000e+000
    endloop
  endfacet
  facet normal 0.000000e+000 0.000000e+000 3.222777e-001
    outer loop
      vertex   -1.065111e+002 3.608956e+001 8.200000e+000
      vertex   -1.094000e+002 2.760384e+001 8.200000e+000
      vertex   -1.065111e+002 2.666099e+001 8.200000e+000
    endloop
  endfacet
  facet normal 0.000000e+000 0.000000e+000 3.102661e-001
    outer loop
      vertex   -1.065111e+002 2.666099e+001 8.200000e+000
      vertex   -1.094000e+002 2.760384e+001 8.200000e+000
      vertex   -1.187033e+002 2.666099e+001 8.200000e+000
    endloop
  endfacet
  facet normal 0.000000e+000 -0.000000e+000 8.600828e-001
    outer loop
      vertex   -1.187033e+002 2.666099e+001 8.200000e+000
      vertex   -1.094000e+002 2.760384e+001 8.200000e+000
      vertex   -1.194000e+002 2.760384e+001 8.200000e+000
    endloop
  endfacet
  facet normal 0.000000e+000 0.000000e+000 2.039259e-001
    outer loop
      vertex   -1.187033e+002 2.666099e+001 8.200000e+000
      vertex   -1.194000e+002 2.760384e+001 8.200000e+000
      vertex   -1.212889e+002 2.897050e+001 8.200000e+000
    endloop
  endfacet
  facet normal -0.000000e+000 0.000000e+000 9.461902e-001
    outer loop
      vertex   -1.212889e+002 2.897050e+001 8.200000e+000
      vertex   -1.194000e+002 2.760384e+001 8.200000e+000
      vertex   -1.194000e+002 3.514670e+001 8.200000e+000
    endloop
  endfacet
endsolid
